<svg xmlns="http://www.w3.org/2000/svg" viewBox="0 0 62.02 51.97"><defs><style>.cls-1{fill:#009fe3;stroke:#009fe3;stroke-miterlimit:10;}</style></defs><g id="Camada_2" data-name="Camada 2"><g id="Camada_1-2" data-name="Camada 1"><path class="cls-1" d="M10.88,6.18a31.05,31.05,0,0,1,5.51-.48c3.71,0,6.37,1,8.12,2.8s2.84,4.37,2.84,8a12.6,12.6,0,0,1-2.88,8.65c-1.9,2.07-5,3.21-8.88,3.21a37.26,37.26,0,0,1-4.71-.25Zm2.6,19.68a16.45,16.45,0,0,0,2.61.14c5.55,0,8.53-3.42,8.53-9.43C24.66,11.31,22,8,16.52,8a13.77,13.77,0,0,0-3,.29Z" transform="translate(-2.25 -5.01)"/><path class="cls-1" d="M33.29,5.88V28.12h-2.6V5.88Z" transform="translate(-2.25 -5.01)"/><path class="cls-1" d="M54.93,16.78c0,7.63-4.19,11.7-9.3,11.7-5.31,0-9-4.56-9-11.29,0-7,3.94-11.68,9.29-11.68S54.93,10.17,54.93,16.78Zm-15.57.35c0,4.76,2.33,9,6.41,9S52.2,22,52.2,16.9c0-4.43-2.09-9-6.39-9S39.36,12.26,39.36,17.13Z" transform="translate(-2.25 -5.01)"/><path class="cls-1" d="M2.75,33.88h10.8v2.39H5.35v7.41h7.57v2.37H5.35V56.12H2.75Z" transform="translate(-2.25 -5.01)"/><path class="cls-1" d="M17.23,33.88h2.6V53.7H28.4v2.42H17.23Z" transform="translate(-2.25 -5.01)"/><path class="cls-1" d="M32.79,33.88V47.06c0,5,2,7.07,4.68,7.07,3,0,4.88-2.18,4.88-7.07V33.88H45v13c0,6.83-3.24,9.62-7.59,9.62-4.09,0-7.18-2.59-7.18-9.5V33.88Z" transform="translate(-2.25 -5.01)"/><path class="cls-1" d="M60.42,56.12l-2.57-4.91c-1.05-1.88-1.68-3.11-2.31-4.39h-.06c-.56,1.29-1.15,2.48-2.16,4.4l-2.41,4.9h-3l6.14-11.27-5.9-11h3l2.67,5.22c.74,1.43,1.29,2.55,1.85,3.76h.07c.57-1.32,1.09-2.34,1.82-3.75l2.72-5.23h3L57.17,44.72l6.26,11.4Z" transform="translate(-2.25 -5.01)"/></g></g></svg>